<svg width="278" height="278" viewBox="0 0 278 278" fill="none" xmlns="http://www.w3.org/2000/svg">
<rect width="278" height="278" fill="black"/>
<path d="M92.4437 75.0314L92.5688 75.7527L93.1951 75.3738C106.542 67.3009 121.912 62.86 138.5 62.86C187.857 62.86 227.5 102.425 227.5 151.68C227.5 200.935 187.857 240.5 138.5 240.5C90.7649 240.5 51.528 202.957 49.5 155.729V38.5028C70.999 38.7409 88.8512 54.3162 92.4437 75.0314ZM93.25 151.68C93.25 176.723 113.409 196.84 138.5 196.84C163.591 196.84 183.75 176.723 183.75 151.68C183.75 126.637 163.591 106.52 138.5 106.52C113.409 106.52 93.25 126.637 93.25 151.68Z" stroke="#FFE050" stroke-opacity="0.2"/>
<path d="M51.9317 156.432H58.1752L50.2094 175.329H43.9659L36 156.432H42.8356L47.3298 167.473L51.9317 156.432Z" fill="#FFE050"/>
<path d="M65.0507 170.524H74.4698V175.329H58.8072V156.432H74.12V161.237H65.0507V163.451H73.0166V168.04H65.0507V170.524Z" fill="#FFE050"/>
<path d="M88.1908 175.329L84.9883 170.578H83.2659V175.329H76.9148V156.432H85.984C91.2318 156.432 94.5688 159.185 94.5688 163.559C94.5688 166.285 93.2771 168.337 91.0165 169.498L94.9725 175.329H88.1908ZM88.1639 163.559C88.1639 162.182 87.3296 161.345 85.5803 161.345H83.2659V165.772H85.5803C87.3296 165.772 88.1639 164.936 88.1639 163.559Z" fill="#FFE050"/>
<path d="M96.9671 175.329V156.432H103.318V175.329H96.9671Z" fill="#FFE050"/>
<path d="M121.688 161.237H112.727V164.477H120.585V169.282H112.727V175.329H106.376V156.432H121.688V161.237Z" fill="#FFE050"/>
<path d="M123.695 175.329V156.432H130.046V175.329H123.695Z" fill="#FFE050"/>
<path d="M142.845 175.761C136.79 175.761 132.35 171.684 132.35 165.88C132.35 160.076 136.79 156 142.845 156C146.532 156 149.439 157.35 151.296 159.779L147.286 163.37C146.182 161.966 144.864 161.156 143.168 161.156C140.531 161.156 138.755 162.992 138.755 165.88C138.755 168.769 140.531 170.605 143.168 170.605C144.864 170.605 146.182 169.795 147.286 168.391L151.296 171.981C149.439 174.411 146.532 175.761 142.845 175.761Z" fill="#FFE050"/>
<path d="M166.968 175.329L165.704 172.035H158.545L157.28 175.329H150.821L159.056 156.432H165.3L173.535 175.329H166.968ZM160.294 167.446H163.954L162.124 162.695L160.294 167.446Z" fill="#FFE050"/>
<path d="M177.693 175.329V161.372H172.176V156.432H189.561V161.372H184.044V175.329H177.693Z" fill="#FFE050"/>
<path d="M191.211 175.329V156.432H197.562V175.329H191.211Z" fill="#FFE050"/>
<path d="M210.496 175.761C204.36 175.761 199.866 171.603 199.866 165.88C199.866 160.157 204.36 156 210.496 156C216.632 156 221.126 160.157 221.126 165.88C221.126 171.603 216.632 175.761 210.496 175.761ZM210.496 170.605C212.837 170.605 214.721 168.823 214.721 165.88C214.721 162.938 212.837 161.156 210.496 161.156C208.154 161.156 206.271 162.938 206.271 165.88C206.271 168.823 208.154 170.605 210.496 170.605Z" fill="#FFE050"/>
<path d="M235.81 156.432H242V175.329H236.779L229.621 166.744V175.329H223.431V156.432H228.652L235.81 165.017V156.432Z" fill="#FFE050"/>
<path d="M45.0692 208.38C41.9206 208.38 38.745 207.598 36.8612 206.437L38.9065 201.793C40.6826 202.846 43.0509 203.521 45.1231 203.521C46.9261 203.521 47.572 203.143 47.572 202.495C47.572 200.12 37.1572 202.036 37.1572 194.991C37.1572 191.481 40.0906 188.62 45.9304 188.62C48.4601 188.62 51.0705 189.16 53.0351 190.266L51.1244 194.883C49.2675 193.938 47.5182 193.479 45.8766 193.479C44.0197 193.479 43.4276 194.019 43.4276 194.667C43.4276 196.934 53.8424 195.045 53.8424 202.009C53.8424 205.465 50.9091 208.38 45.0692 208.38Z" fill="#FFE050"/>
<path d="M78.3382 207.948H72.5521L72.4983 199.337L68.4077 206.248H65.6089L61.5184 199.634V207.948H55.7323V189.052H60.9532L67.0891 199.121L73.0635 189.052H78.2843L78.3382 207.948Z" fill="#FFE050"/>
<path d="M88.4328 208.38C85.2841 208.38 82.1085 207.598 80.2247 206.437L82.27 201.793C84.0462 202.846 86.4144 203.521 88.4866 203.521C90.2897 203.521 90.9355 203.143 90.9355 202.495C90.9355 200.12 80.5207 202.036 80.5207 194.991C80.5207 191.481 83.4541 188.62 89.2939 188.62C91.8236 188.62 94.4341 189.16 96.3986 190.266L94.4879 194.883C92.631 193.938 90.8817 193.479 89.2401 193.479C87.3832 193.479 86.7911 194.019 86.7911 194.667C86.7911 196.934 97.206 195.045 97.206 202.009C97.206 205.465 94.2726 208.38 88.4328 208.38Z" fill="#FFE050"/>
<path d="M52.147 240.568L50.8822 237.275H43.7236L42.4588 240.568H36L44.235 221.671H50.4785L58.7134 240.568H52.147ZM45.4729 232.685H49.1329L47.3029 227.934L45.4729 232.685Z" fill="#FFE050"/>
<path d="M69.2063 241C63.1511 241 58.7107 236.924 58.7107 231.12C58.7107 225.316 63.1511 221.239 69.2063 221.239C72.8932 221.239 75.7996 222.589 77.6565 225.019L73.6467 228.609C72.5433 227.205 71.2246 226.395 69.5292 226.395C66.8919 226.395 65.1157 228.231 65.1157 231.12C65.1157 234.008 66.8919 235.844 69.5292 235.844C71.2246 235.844 72.5433 235.034 73.6467 233.63L77.6565 237.221C75.7996 239.65 72.8932 241 69.2063 241Z" fill="#FFE050"/>
<path d="M88.8381 241C82.783 241 78.3426 236.924 78.3426 231.12C78.3426 225.316 82.783 221.239 88.8381 221.239C92.525 221.239 95.4315 222.589 97.2884 225.019L93.2785 228.609C92.1752 227.205 90.8565 226.395 89.1611 226.395C86.5237 226.395 84.7475 228.231 84.7475 231.12C84.7475 234.008 86.5237 235.844 89.1611 235.844C90.8565 235.844 92.1752 235.034 93.2785 233.63L97.2884 237.221C95.4315 239.65 92.525 241 88.8381 241Z" fill="#FFE050"/>
<path d="M105.366 235.763H114.785V240.568H99.1222V221.671H114.435V226.476H105.366V228.69H113.332V233.279H105.366V235.763Z" fill="#FFE050"/>
<path d="M124.254 241C121.105 241 117.929 240.217 116.046 239.056L118.091 234.413C119.867 235.466 122.235 236.141 124.307 236.141C126.111 236.141 126.756 235.763 126.756 235.115C126.756 232.739 116.342 234.656 116.342 227.61C116.342 224.101 119.275 221.239 125.115 221.239C127.645 221.239 130.255 221.779 132.22 222.886L130.309 227.502C128.452 226.557 126.703 226.098 125.061 226.098C123.204 226.098 122.612 226.638 122.612 227.286C122.612 229.554 133.027 227.664 133.027 234.629C133.027 238.084 130.093 241 124.254 241Z" fill="#FFE050"/>
<path d="M141.941 241C138.792 241 135.616 240.217 133.733 239.056L135.778 234.413C137.554 235.466 139.922 236.141 141.995 236.141C143.798 236.141 144.444 235.763 144.444 235.115C144.444 232.739 134.029 234.656 134.029 227.61C134.029 224.101 136.962 221.239 142.802 221.239C145.332 221.239 147.942 221.779 149.907 222.886L147.996 227.502C146.139 226.557 144.39 226.098 142.748 226.098C140.891 226.098 140.299 226.638 140.299 227.286C140.299 229.554 150.714 227.664 150.714 234.629C150.714 238.084 147.781 241 141.941 241Z" fill="#FFE050"/>
</svg>
